<svg version="1.1" xmlns="http://www.w3.org/2000/svg" xmlns:xlink="http://www.w3.org/1999/xlink">
  <symbol id="message" viewBox="0 0 18 19">
    <path
      d="M1.76019 13.0335L4.30019 12.7337C4.91019 12.6614 5.51019 12.8785 5.94019 13.323L7.78019 15.225C10.6102 13.7365 12.9302 11.3486 14.3702 8.41277L12.5202 6.50037C12.0902 6.05587 11.8802 5.43563 11.9502 4.80505L12.2402 2.20006C12.3602 1.15599 13.2102 0.370361 14.2302 0.370361H15.9602C17.0902 0.370361 18.0302 1.34207 17.9602 2.51018C17.4302 11.3382 10.6002 18.3882 2.07019 18.9361C0.940193 19.0085 0.00019455 18.0368 0.00019455 16.8687V15.0803C-0.00980545 14.0362 0.750193 13.1576 1.76019 13.0335Z"
      fill="white"/>
  </symbol>
  <symbol id="profile" viewBox="0 0 20 19">
    <path
      d="M10.5 9.63973C12.9853 9.63973 15 7.55706 15 4.98796C15 2.41885 12.9853 0.336182 10.5 0.336182C8.01472 0.336182 6 2.41885 6 4.98796C6 7.55706 8.01472 9.63973 10.5 9.63973Z"
      fill="white"/>
    <path
      d="M0.0165859 17.5088C-0.113065 18.2629 0.535191 18.9439 1.33903 18.9439H18.6604C19.4902 18.9439 20.1125 18.2629 19.9829 17.5088C19.2309 13.155 15.0561 10.6741 9.99973 10.6741C4.94333 10.6741 0.768563 13.155 0.0165859 17.5088Z"
      fill="white"/>
  </symbol>
  <symbol id="callback" viewBox="0 0 20 22">
    <path
      d="M18 0.370361H2C0.9 0.370361 0.01 1.30072 0.01 2.43782L0 21.0449L4 15.8763H18C19.1 15.8763 20 14.9459 20 13.8088V2.43782C20 1.30072 19.1 0.370361 18 0.370361ZM11 11.742H5C4.45 11.742 4 11.2769 4 10.7083C4 10.1398 4.45 9.67459 5 9.67459H11C11.55 9.67459 12 10.1398 12 10.7083C12 11.2769 11.55 11.742 11 11.742ZM15 6.57335H5C4.45 6.57335 4 6.10818 4 5.53963C4 4.97108 4.45 4.5059 5 4.5059H15C15.55 4.5059 16 4.97108 16 5.53963C16 6.10818 15.55 6.57335 15 6.57335Z"
      fill="white"/>
  </symbol>
  <symbol id="services" viewBox="0 0 20 20">
    <path
      d="M8.25807 13.4583L8.66685 13.0494L6.94998 11.3322L6.54121 11.7411L6.33682 11.5367C6.0098 11.1687 5.68278 10.9643 5.35575 11.0052C5.11049 11.0052 4.9061 11.1687 4.74259 11.414C4.49732 11.8229 4.61996 12.2726 4.66083 12.5588C4.66083 12.6406 4.70171 12.6815 4.70171 12.7632C4.70171 12.8859 4.70171 13.0494 4.41557 13.0903C4.00679 13.213 3.47538 13.3356 2.94397 13.6218C2.20817 14.0307 1.71764 14.3987 1.4315 14.7666C-0.0809772 16.7291 0.000778159 18.4055 0.000778159 18.4872C0.000778159 18.6099 0.0416558 18.6917 0.123411 18.7325L1.22711 19.8773C1.30886 19.9591 1.39062 20 1.47237 20C1.47237 20 1.51325 20 1.59501 20C2.00378 20 3.47538 19.9182 5.19224 18.569C5.56014 18.2828 5.92804 17.7922 6.33682 17.0562C6.62296 16.5656 6.78647 16.0341 6.86823 15.5844C6.94998 15.2982 7.07262 15.2982 7.19525 15.2982C7.23613 15.2982 7.31788 15.339 7.39964 15.339C7.56315 15.3799 7.72666 15.4208 7.93105 15.4208C8.13544 15.4208 8.33983 15.3799 8.54421 15.2573C8.78948 15.0937 8.95299 14.8893 8.99387 14.644C9.03475 14.3169 8.87123 13.9898 8.50334 13.7036L8.25807 13.4583Z"
      fill="white"/>
    <path
      d="M16.884 4.87841L18.0188 4.32603C18.0609 4.28354 18.1449 4.24105 18.1869 4.19856L19.9101 1.86157C20.0362 1.69161 20.0362 1.43667 19.8681 1.3092L18.6913 0.119458C18.5652 -0.00801422 18.313 -0.0505049 18.1449 0.076967L15.8333 1.81908C15.7913 1.86157 15.7493 1.90406 15.7072 1.98905L15.1609 3.13629L11 7.21539L12.7652 9L16.884 4.87841Z"
      fill="white"/>
    <path
      d="M17.8527 13.0448C16.8636 12.0036 15.4393 11.6288 14.0941 12.0036L7.64527 5.17331C7.72439 4.79848 7.76396 4.46529 7.76396 4.09046C7.76396 3.04926 7.36832 2.00806 6.61661 1.21675C5.58796 0.0922529 4.04498 -0.282579 2.6207 0.217197C2.54157 0.258845 2.42288 0.383789 2.38331 0.550381C2.38331 0.675325 2.42288 0.800269 2.50201 0.925213L4.44062 2.96597C4.87582 3.42409 4.87582 4.21541 4.44062 4.67353C4.00542 5.13166 3.25371 5.13166 2.81851 4.67353L0.8799 2.63278C0.76121 2.54949 0.642519 2.50784 0.484265 2.54949C0.365574 2.54949 0.246884 2.67443 0.20732 2.79937C-0.267442 4.25705 0.0886295 5.88133 1.11728 6.96417C1.82943 7.75549 2.85808 8.17197 3.88673 8.17197C4.20324 8.17197 4.55931 8.13032 4.87582 8.04702L11.3642 14.8773C11.0082 16.2933 11.4038 17.7927 12.3533 18.8339C13.105 19.6252 14.0546 20 15.0832 20C15.5184 20 15.914 19.9167 16.3492 19.7918C16.4679 19.7501 16.5866 19.6252 16.6262 19.5002C16.6658 19.3753 16.6262 19.2087 16.5075 19.1254L14.5689 17.0846C14.3711 16.8764 14.2128 16.5432 14.2128 16.21C14.2128 15.8768 14.3315 15.5853 14.5689 15.3354C14.8063 15.0855 15.0832 14.9606 15.3997 14.9606C15.7162 14.9606 15.9932 15.0855 16.2306 15.3354L18.1692 17.3762C18.2879 17.4595 18.4065 17.5011 18.5252 17.5011C18.6439 17.4595 18.7626 17.3762 18.8022 17.2512C18.9209 16.8348 19 16.3766 19 15.9185C19 14.8356 18.6044 13.7944 17.8527 13.0448Z"
      fill="white"/>
  </symbol>
  <symbol id="search01" viewBox="0 0 16 20">
    <path fill-rule="evenodd" clip-rule="evenodd" d="M0 1C0 0.447715 0.447715 0 1 0H15C15.5523 0 16 0.447716 16 1V18.5C15.1716 18.5 14.5 19.1715 14.5 19.9999H13.5C13.5 19.1715 12.8284 18.5 12 18.5C11.1716 18.5 10.5 19.1715 10.5 19.9999H9.5C9.49995 19.1715 8.8284 18.5 8 18.5C7.1716 18.5 6.50005 19.1715 6.5 19.9999H5.5C5.49995 19.1715 4.8284 18.5 4 18.5C3.1716 18.5 2.50005 19.1715 2.5 19.9999H1.5C1.49995 19.1715 0.828399 18.5 0 18.5V1ZM9.41631 11.7884C8.55357 12.3443 7.47034 12.5936 6.32961 12.3827C4.52743 12.0472 3.08953 10.5326 2.85946 8.71135C2.4952 5.82606 4.94922 3.42005 7.85379 3.88016C9.65596 4.16773 11.1034 5.64393 11.4006 7.43646C11.5828 8.5484 11.3239 9.57406 10.7871 10.4272L12.896 12.5265C13.2699 12.9003 13.2699 13.5138 12.896 13.8876C12.5126 14.2711 11.8991 14.2711 11.5252 13.8972L9.41631 11.7884ZM4.70582 8.05877C4.70582 6.75995 5.75994 5.70583 7.05876 5.70583C8.35758 5.70583 9.4117 6.75995 9.4117 8.05877C9.4117 9.3576 8.35758 10.4117 7.05876 10.4117C5.75994 10.4117 4.70582 9.3576 4.70582 8.05877Z" fill="white"/>
  </symbol>
  <symbol id="burger" viewBox="0 0 18 16">
    <path fill-rule="evenodd" clip-rule="evenodd" d="M0 1C0 0.447715 0.447715 0 1 0H17C17.5523 0 18 0.447715 18 1C18 1.55228 17.5523 2 17 2H1C0.447716 2 0 1.55228 0 1ZM0 8C0 7.44772 0.447715 7 1 7H9C9.55228 7 10 7.44772 10 8C10 8.55228 9.55229 9 9 9H1C0.447715 9 0 8.55228 0 8ZM1 14C0.447715 14 0 14.4477 0 15C0 15.5523 0.447716 16 1 16H13C13.5523 16 14 15.5523 14 15C14 14.4477 13.5523 14 13 14H1Z" fill="white"/>
  </symbol>
  <symbol id="search02" viewBox="0 0 18 18">
    <path fill-rule="evenodd" clip-rule="evenodd" d="M12.5006 11.0006H11.7106L11.4306 10.7306C12.6306 9.33063 13.2506 7.42063 12.9106 5.39063C12.4406 2.61063 10.1206 0.390626 7.32063 0.0506256C3.09063 -0.469374 -0.469374 3.09063 0.0506256 7.32063C0.390626 10.1206 2.61063 12.4406 5.39063 12.9106C7.42063 13.2506 9.33063 12.6306 10.7306 11.4306L11.0006 11.7106V12.5006L15.2606 16.7506C15.6706 17.1606 16.3306 17.1606 16.7406 16.7506L16.7506 16.7406C17.1606 16.3306 17.1606 15.6706 16.7506 15.2606L12.5006 11.0006ZM6.50063 11.0006C4.01063 11.0006 2.00063 8.99063 2.00063 6.50063C2.00063 4.01063 4.01063 2.00063 6.50063 2.00063C8.99063 2.00063 11.0006 4.01063 11.0006 6.50063C11.0006 8.99063 8.99063 11.0006 6.50063 11.0006Z" fill="white"/>
  </symbol>
  <symbol id="close" viewBox="0 0 18 18">
    <path fill-rule="evenodd" clip-rule="evenodd" d="M2.79348 1.25712C2.40295 0.866593 1.76979 0.866592 1.37927 1.25712L1.25712 1.37927C0.866592 1.76979 0.866593 2.40296 1.25712 2.79348L7.46364 9L1.25712 15.2065C0.866593 15.597 0.866592 16.2302 1.25712 16.6207L1.37927 16.7429C1.76979 17.1334 2.40295 17.1334 2.79348 16.7429L9 10.5364L15.2065 16.7429C15.597 17.1334 16.2302 17.1334 16.6207 16.7429L16.7429 16.6207C17.1334 16.2302 17.1334 15.597 16.7429 15.2065L10.5364 9L16.7429 2.79348C17.1334 2.40296 17.1334 1.76979 16.7429 1.37927L16.6207 1.25712C16.2302 0.866592 15.597 0.866593 15.2065 1.25712L9 7.46364L2.79348 1.25712Z" fill="white"/>
  </symbol>
  <view id="message-view" viewBox="0 0 18 19"/>
  <view id="profile-view" viewBox="0 30 20 19"/>
  <view id="callback-view" viewBox="0 60 20 22"/>
  <view id="services-view" viewBox="0 90 20 20"/>
  <view id="search01-view" viewBox="0 120 16 20"/>
  <view id="burger-view" viewBox="30 0 16 20"/>
  <view id="search02-view" viewBox="30 30 18 18"/>
  <view id="close-view" viewBox="30 60 18 18"/>
  <use xlink:href="#message" width="18" height="19" x="0" y="0"></use>
  <use xlink:href="#profile" width="20" height="19" x="0" y="30"></use>
  <use xlink:href="#callback" width="20" height="22" x="0" y="60"></use>
  <use xlink:href="#services" width="20" height="20" x="0" y="90"></use>
  <use xlink:href="#search01" width="16" height="20" x="0" y="120"></use>
  <use xlink:href="#burger" width="18" height="16" x="30" y="0"></use>
  <use xlink:href="#search02" width="18" height="18" x="30" y="30"></use>
  <use xlink:href="#close" width="18" height="18" x="30" y="60"></use>
</svg>
