<svg width="18" height="19" viewBox="0 0 18 19" fill="none" xmlns="http://www.w3.org/2000/svg">
<path fill-rule="evenodd" clip-rule="evenodd" d="M1.76019 13.0335L4.30019 12.7337C4.91019 12.6614 5.51019 12.8785 5.94019 13.323L7.78019 15.225C10.6102 13.7365 12.9302 11.3486 14.3702 8.41277L12.5202 6.50037C12.0902 6.05587 11.8802 5.43563 11.9502 4.80505L12.2402 2.20006C12.3602 1.15599 13.2102 0.370361 14.2302 0.370361H15.9602C17.0902 0.370361 18.0302 1.34207 17.9602 2.51018C17.4302 11.3382 10.6002 18.3882 2.07019 18.9361C0.940193 19.0085 0.00019455 18.0368 0.00019455 16.8687V15.0803C-0.00980545 14.0362 0.750193 13.1576 1.76019 13.0335Z" fill="white"/>
</svg>
