<svg width="20" height="22" viewBox="0 0 20 22" fill="none" xmlns="http://www.w3.org/2000/svg">
<path fill-rule="evenodd" clip-rule="evenodd" d="M18 0.370361H2C0.9 0.370361 0.01 1.30072 0.01 2.43782L0 21.0449L4 15.8763H18C19.1 15.8763 20 14.9459 20 13.8088V2.43782C20 1.30072 19.1 0.370361 18 0.370361ZM11 11.742H5C4.45 11.742 4 11.2769 4 10.7083C4 10.1398 4.45 9.67459 5 9.67459H11C11.55 9.67459 12 10.1398 12 10.7083C12 11.2769 11.55 11.742 11 11.742ZM15 6.57335H5C4.45 6.57335 4 6.10818 4 5.53963C4 4.97108 4.45 4.5059 5 4.5059H15C15.55 4.5059 16 4.97108 16 5.53963C16 6.10818 15.55 6.57335 15 6.57335Z" fill="white"/>
</svg>
